<mxfile host="app.diagrams.net" agent="Mozilla/5.0 (Windows NT 10.0; Win64; x64) AppleWebKit/537.36 (KHTML, like Gecko) Chrome/137.0.0.0 Safari/537.36" version="27.1.4">
  <diagram name="PÃ¡gina-1" id="ehp9FVpHvF8fSdvszUdg">
    <mxGraphModel dx="786" dy="1620" grid="1" gridSize="10" guides="1" tooltips="1" connect="1" arrows="1" fold="1" page="1" pageScale="1" pageWidth="827" pageHeight="1169" math="0" shadow="0">
      <root>
        <mxCell id="0" />
        <mxCell id="1" parent="0" />
        <mxCell id="y6DVJzXxXOsfHL_izgRg-1" value="Produto" style="swimlane;fontStyle=0;align=center;verticalAlign=top;childLayout=stackLayout;horizontal=1;startSize=26;horizontalStack=0;resizeParent=1;resizeLast=0;collapsible=1;marginBottom=0;rounded=0;shadow=0;strokeWidth=1;" parent="1" vertex="1">
          <mxGeometry x="620" y="-584" width="160" height="190" as="geometry">
            <mxRectangle x="550" y="140" width="160" height="26" as="alternateBounds" />
          </mxGeometry>
        </mxCell>
        <mxCell id="y6DVJzXxXOsfHL_izgRg-2" value="-id: int" style="text;align=left;verticalAlign=top;spacingLeft=4;spacingRight=4;overflow=hidden;rotatable=0;points=[[0,0.5],[1,0.5]];portConstraint=eastwest;" parent="y6DVJzXxXOsfHL_izgRg-1" vertex="1">
          <mxGeometry y="26" width="160" height="26" as="geometry" />
        </mxCell>
        <mxCell id="y6DVJzXxXOsfHL_izgRg-3" value="-nome: string" style="text;align=left;verticalAlign=top;spacingLeft=4;spacingRight=4;overflow=hidden;rotatable=0;points=[[0,0.5],[1,0.5]];portConstraint=eastwest;rounded=0;shadow=0;html=0;" parent="y6DVJzXxXOsfHL_izgRg-1" vertex="1">
          <mxGeometry y="52" width="160" height="26" as="geometry" />
        </mxCell>
        <mxCell id="y6DVJzXxXOsfHL_izgRg-4" value="-codigoBarras: int" style="text;align=left;verticalAlign=top;spacingLeft=4;spacingRight=4;overflow=hidden;rotatable=0;points=[[0,0.5],[1,0.5]];portConstraint=eastwest;rounded=0;shadow=0;html=0;" parent="y6DVJzXxXOsfHL_izgRg-1" vertex="1">
          <mxGeometry y="78" width="160" height="26" as="geometry" />
        </mxCell>
        <mxCell id="y6DVJzXxXOsfHL_izgRg-5" value="-preco: float" style="text;align=left;verticalAlign=top;spacingLeft=4;spacingRight=4;overflow=hidden;rotatable=0;points=[[0,0.5],[1,0.5]];portConstraint=eastwest;rounded=0;shadow=0;html=0;" parent="y6DVJzXxXOsfHL_izgRg-1" vertex="1">
          <mxGeometry y="104" width="160" height="26" as="geometry" />
        </mxCell>
        <mxCell id="y6DVJzXxXOsfHL_izgRg-6" value="-quantidade: int" style="text;align=left;verticalAlign=top;spacingLeft=4;spacingRight=4;overflow=hidden;rotatable=0;points=[[0,0.5],[1,0.5]];portConstraint=eastwest;rounded=0;shadow=0;html=0;" parent="y6DVJzXxXOsfHL_izgRg-1" vertex="1">
          <mxGeometry y="130" width="160" height="26" as="geometry" />
        </mxCell>
        <mxCell id="y6DVJzXxXOsfHL_izgRg-7" value="" style="line;html=1;strokeWidth=1;align=left;verticalAlign=middle;spacingTop=-1;spacingLeft=3;spacingRight=3;rotatable=0;labelPosition=right;points=[];portConstraint=eastwest;" parent="y6DVJzXxXOsfHL_izgRg-1" vertex="1">
          <mxGeometry y="156" width="160" height="8" as="geometry" />
        </mxCell>
        <mxCell id="y6DVJzXxXOsfHL_izgRg-8" value="+get_info()" style="text;align=left;verticalAlign=top;spacingLeft=4;spacingRight=4;overflow=hidden;rotatable=0;points=[[0,0.5],[1,0.5]];portConstraint=eastwest;" parent="y6DVJzXxXOsfHL_izgRg-1" vertex="1">
          <mxGeometry y="164" width="160" height="26" as="geometry" />
        </mxCell>
        <mxCell id="y6DVJzXxXOsfHL_izgRg-9" value="Setor" style="swimlane;fontStyle=0;align=center;verticalAlign=top;childLayout=stackLayout;horizontal=1;startSize=26;horizontalStack=0;resizeParent=1;resizeLast=0;collapsible=1;marginBottom=0;rounded=0;shadow=0;strokeWidth=1;" parent="1" vertex="1">
          <mxGeometry x="340" y="-360" width="160" height="112" as="geometry">
            <mxRectangle x="130" y="380" width="160" height="26" as="alternateBounds" />
          </mxGeometry>
        </mxCell>
        <mxCell id="y6DVJzXxXOsfHL_izgRg-10" value="-id: int" style="text;align=left;verticalAlign=top;spacingLeft=4;spacingRight=4;overflow=hidden;rotatable=0;points=[[0,0.5],[1,0.5]];portConstraint=eastwest;" parent="y6DVJzXxXOsfHL_izgRg-9" vertex="1">
          <mxGeometry y="26" width="160" height="26" as="geometry" />
        </mxCell>
        <mxCell id="y6DVJzXxXOsfHL_izgRg-11" value="-nome: string" style="text;align=left;verticalAlign=top;spacingLeft=4;spacingRight=4;overflow=hidden;rotatable=0;points=[[0,0.5],[1,0.5]];portConstraint=eastwest;rounded=0;shadow=0;html=0;" parent="y6DVJzXxXOsfHL_izgRg-9" vertex="1">
          <mxGeometry y="52" width="160" height="26" as="geometry" />
        </mxCell>
        <mxCell id="y6DVJzXxXOsfHL_izgRg-12" value="" style="line;html=1;strokeWidth=1;align=left;verticalAlign=middle;spacingTop=-1;spacingLeft=3;spacingRight=3;rotatable=0;labelPosition=right;points=[];portConstraint=eastwest;" parent="y6DVJzXxXOsfHL_izgRg-9" vertex="1">
          <mxGeometry y="78" width="160" height="8" as="geometry" />
        </mxCell>
        <mxCell id="y6DVJzXxXOsfHL_izgRg-13" value="+get_info()" style="text;align=left;verticalAlign=top;spacingLeft=4;spacingRight=4;overflow=hidden;rotatable=0;points=[[0,0.5],[1,0.5]];portConstraint=eastwest;" parent="y6DVJzXxXOsfHL_izgRg-9" vertex="1">
          <mxGeometry y="86" width="160" height="26" as="geometry" />
        </mxCell>
        <mxCell id="y6DVJzXxXOsfHL_izgRg-14" value="Funcionario" style="swimlane;fontStyle=0;align=center;verticalAlign=top;childLayout=stackLayout;horizontal=1;startSize=26;horizontalStack=0;resizeParent=1;resizeLast=0;collapsible=1;marginBottom=0;rounded=0;shadow=0;strokeWidth=1;" parent="1" vertex="1">
          <mxGeometry x="320" y="-630" width="160" height="216" as="geometry">
            <mxRectangle x="550" y="140" width="160" height="26" as="alternateBounds" />
          </mxGeometry>
        </mxCell>
        <mxCell id="y6DVJzXxXOsfHL_izgRg-15" value="-id: int" style="text;align=left;verticalAlign=top;spacingLeft=4;spacingRight=4;overflow=hidden;rotatable=0;points=[[0,0.5],[1,0.5]];portConstraint=eastwest;" parent="y6DVJzXxXOsfHL_izgRg-14" vertex="1">
          <mxGeometry y="26" width="160" height="26" as="geometry" />
        </mxCell>
        <mxCell id="y6DVJzXxXOsfHL_izgRg-16" value="-nome: string" style="text;align=left;verticalAlign=top;spacingLeft=4;spacingRight=4;overflow=hidden;rotatable=0;points=[[0,0.5],[1,0.5]];portConstraint=eastwest;rounded=0;shadow=0;html=0;" parent="y6DVJzXxXOsfHL_izgRg-14" vertex="1">
          <mxGeometry y="52" width="160" height="26" as="geometry" />
        </mxCell>
        <mxCell id="y6DVJzXxXOsfHL_izgRg-17" value="-dataNascimento: string" style="text;align=left;verticalAlign=top;spacingLeft=4;spacingRight=4;overflow=hidden;rotatable=0;points=[[0,0.5],[1,0.5]];portConstraint=eastwest;rounded=0;shadow=0;html=0;" parent="y6DVJzXxXOsfHL_izgRg-14" vertex="1">
          <mxGeometry y="78" width="160" height="26" as="geometry" />
        </mxCell>
        <mxCell id="y6DVJzXxXOsfHL_izgRg-18" value="-cpf: string" style="text;align=left;verticalAlign=top;spacingLeft=4;spacingRight=4;overflow=hidden;rotatable=0;points=[[0,0.5],[1,0.5]];portConstraint=eastwest;rounded=0;shadow=0;html=0;" parent="y6DVJzXxXOsfHL_izgRg-14" vertex="1">
          <mxGeometry y="104" width="160" height="26" as="geometry" />
        </mxCell>
        <mxCell id="y6DVJzXxXOsfHL_izgRg-19" value="-telefone: string" style="text;align=left;verticalAlign=top;spacingLeft=4;spacingRight=4;overflow=hidden;rotatable=0;points=[[0,0.5],[1,0.5]];portConstraint=eastwest;rounded=0;shadow=0;html=0;" parent="y6DVJzXxXOsfHL_izgRg-14" vertex="1">
          <mxGeometry y="130" width="160" height="26" as="geometry" />
        </mxCell>
        <mxCell id="y6DVJzXxXOsfHL_izgRg-20" value="-email: string" style="text;align=left;verticalAlign=top;spacingLeft=4;spacingRight=4;overflow=hidden;rotatable=0;points=[[0,0.5],[1,0.5]];portConstraint=eastwest;rounded=0;shadow=0;html=0;" parent="y6DVJzXxXOsfHL_izgRg-14" vertex="1">
          <mxGeometry y="156" width="160" height="26" as="geometry" />
        </mxCell>
        <mxCell id="y6DVJzXxXOsfHL_izgRg-21" value="" style="line;html=1;strokeWidth=1;align=left;verticalAlign=middle;spacingTop=-1;spacingLeft=3;spacingRight=3;rotatable=0;labelPosition=right;points=[];portConstraint=eastwest;" parent="y6DVJzXxXOsfHL_izgRg-14" vertex="1">
          <mxGeometry y="182" width="160" height="8" as="geometry" />
        </mxCell>
        <mxCell id="y6DVJzXxXOsfHL_izgRg-22" value="+get_info()" style="text;align=left;verticalAlign=top;spacingLeft=4;spacingRight=4;overflow=hidden;rotatable=0;points=[[0,0.5],[1,0.5]];portConstraint=eastwest;" parent="y6DVJzXxXOsfHL_izgRg-14" vertex="1">
          <mxGeometry y="190" width="160" height="26" as="geometry" />
        </mxCell>
        <mxCell id="CuLOmZ2giXJvDx2kBob3-4" value="" style="endArrow=diamondThin;endFill=0;endSize=24;html=1;rounded=0;entryX=1;entryY=0.5;entryDx=0;entryDy=0;exitX=1;exitY=0.5;exitDx=0;exitDy=0;" parent="y6DVJzXxXOsfHL_izgRg-14" source="y6DVJzXxXOsfHL_izgRg-17" target="y6DVJzXxXOsfHL_izgRg-19" edge="1">
          <mxGeometry width="160" relative="1" as="geometry">
            <mxPoint x="250" y="143" as="sourcePoint" />
            <mxPoint x="170" y="180" as="targetPoint" />
            <Array as="points">
              <mxPoint x="200" y="91" />
              <mxPoint x="200" y="110" />
              <mxPoint x="200" y="140" />
            </Array>
          </mxGeometry>
        </mxCell>
        <mxCell id="CuLOmZ2giXJvDx2kBob3-5" value="Gerencia" style="edgeLabel;html=1;align=center;verticalAlign=middle;resizable=0;points=[];" parent="CuLOmZ2giXJvDx2kBob3-4" vertex="1" connectable="0">
          <mxGeometry x="0.0402" y="3" relative="1" as="geometry">
            <mxPoint as="offset" />
          </mxGeometry>
        </mxCell>
        <mxCell id="y6DVJzXxXOsfHL_izgRg-23" value="SimpleCLI" style="swimlane;fontStyle=0;align=center;verticalAlign=top;childLayout=stackLayout;horizontal=1;startSize=26;horizontalStack=0;resizeParent=1;resizeLast=0;collapsible=1;marginBottom=0;rounded=0;shadow=0;strokeWidth=1;" parent="1" vertex="1">
          <mxGeometry x="305" y="-1160" width="160" height="138" as="geometry">
            <mxRectangle x="130" y="380" width="160" height="26" as="alternateBounds" />
          </mxGeometry>
        </mxCell>
        <mxCell id="y6DVJzXxXOsfHL_izgRg-24" value="-commands: dict" style="text;align=left;verticalAlign=top;spacingLeft=4;spacingRight=4;overflow=hidden;rotatable=0;points=[[0,0.5],[1,0.5]];portConstraint=eastwest;" parent="y6DVJzXxXOsfHL_izgRg-23" vertex="1">
          <mxGeometry y="26" width="160" height="26" as="geometry" />
        </mxCell>
        <mxCell id="y6DVJzXxXOsfHL_izgRg-25" value="" style="line;html=1;strokeWidth=1;align=left;verticalAlign=middle;spacingTop=-1;spacingLeft=3;spacingRight=3;rotatable=0;labelPosition=right;points=[];portConstraint=eastwest;" parent="y6DVJzXxXOsfHL_izgRg-23" vertex="1">
          <mxGeometry y="52" width="160" height="8" as="geometry" />
        </mxCell>
        <mxCell id="y6DVJzXxXOsfHL_izgRg-26" value="+__init__()" style="text;align=left;verticalAlign=top;spacingLeft=4;spacingRight=4;overflow=hidden;rotatable=0;points=[[0,0.5],[1,0.5]];portConstraint=eastwest;" parent="y6DVJzXxXOsfHL_izgRg-23" vertex="1">
          <mxGeometry y="60" width="160" height="26" as="geometry" />
        </mxCell>
        <mxCell id="y6DVJzXxXOsfHL_izgRg-27" value="+add_command()" style="text;align=left;verticalAlign=top;spacingLeft=4;spacingRight=4;overflow=hidden;rotatable=0;points=[[0,0.5],[1,0.5]];portConstraint=eastwest;" parent="y6DVJzXxXOsfHL_izgRg-23" vertex="1">
          <mxGeometry y="86" width="160" height="26" as="geometry" />
        </mxCell>
        <mxCell id="y6DVJzXxXOsfHL_izgRg-28" value="+run()" style="text;align=left;verticalAlign=top;spacingLeft=4;spacingRight=4;overflow=hidden;rotatable=0;points=[[0,0.5],[1,0.5]];portConstraint=eastwest;" parent="y6DVJzXxXOsfHL_izgRg-23" vertex="1">
          <mxGeometry y="112" width="160" height="26" as="geometry" />
        </mxCell>
        <mxCell id="y6DVJzXxXOsfHL_izgRg-29" value="InicialCLI" style="swimlane;fontStyle=0;align=center;verticalAlign=top;childLayout=stackLayout;horizontal=1;startSize=26;horizontalStack=0;resizeParent=1;resizeLast=0;collapsible=1;marginBottom=0;rounded=0;shadow=0;strokeWidth=1;" parent="1" vertex="1">
          <mxGeometry x="290" y="-980" width="190" height="138" as="geometry">
            <mxRectangle x="130" y="380" width="160" height="26" as="alternateBounds" />
          </mxGeometry>
        </mxCell>
        <mxCell id="y6DVJzXxXOsfHL_izgRg-30" value="-estoque_cli: EstoqueCLI" style="text;align=left;verticalAlign=top;spacingLeft=4;spacingRight=4;overflow=hidden;rotatable=0;points=[[0,0.5],[1,0.5]];portConstraint=eastwest;" parent="y6DVJzXxXOsfHL_izgRg-29" vertex="1">
          <mxGeometry y="26" width="190" height="26" as="geometry" />
        </mxCell>
        <mxCell id="y6DVJzXxXOsfHL_izgRg-31" value="-funcionario_cli: FuncionariosCLI" style="text;align=left;verticalAlign=top;spacingLeft=4;spacingRight=4;overflow=hidden;rotatable=0;points=[[0,0.5],[1,0.5]];portConstraint=eastwest;" parent="y6DVJzXxXOsfHL_izgRg-29" vertex="1">
          <mxGeometry y="52" width="190" height="26" as="geometry" />
        </mxCell>
        <mxCell id="y6DVJzXxXOsfHL_izgRg-32" value="" style="line;html=1;strokeWidth=1;align=left;verticalAlign=middle;spacingTop=-1;spacingLeft=3;spacingRight=3;rotatable=0;labelPosition=right;points=[];portConstraint=eastwest;" parent="y6DVJzXxXOsfHL_izgRg-29" vertex="1">
          <mxGeometry y="78" width="190" height="8" as="geometry" />
        </mxCell>
        <mxCell id="y6DVJzXxXOsfHL_izgRg-33" value="+__init__()" style="text;align=left;verticalAlign=top;spacingLeft=4;spacingRight=4;overflow=hidden;rotatable=0;points=[[0,0.5],[1,0.5]];portConstraint=eastwest;" parent="y6DVJzXxXOsfHL_izgRg-29" vertex="1">
          <mxGeometry y="86" width="190" height="26" as="geometry" />
        </mxCell>
        <mxCell id="y6DVJzXxXOsfHL_izgRg-34" value="+run()" style="text;align=left;verticalAlign=top;spacingLeft=4;spacingRight=4;overflow=hidden;rotatable=0;points=[[0,0.5],[1,0.5]];portConstraint=eastwest;" parent="y6DVJzXxXOsfHL_izgRg-29" vertex="1">
          <mxGeometry y="112" width="190" height="26" as="geometry" />
        </mxCell>
        <mxCell id="y6DVJzXxXOsfHL_izgRg-35" value="EstoqueCLI" style="swimlane;fontStyle=0;align=center;verticalAlign=top;childLayout=stackLayout;horizontal=1;startSize=26;horizontalStack=0;resizeParent=1;resizeLast=0;collapsible=1;marginBottom=0;rounded=0;shadow=0;strokeWidth=1;" parent="1" vertex="1">
          <mxGeometry x="630" y="-1140" width="190" height="242" as="geometry">
            <mxRectangle x="130" y="380" width="160" height="26" as="alternateBounds" />
          </mxGeometry>
        </mxCell>
        <mxCell id="y6DVJzXxXOsfHL_izgRg-36" value="-estoque: EstoqueCRUD" style="text;align=left;verticalAlign=top;spacingLeft=4;spacingRight=4;overflow=hidden;rotatable=0;points=[[0,0.5],[1,0.5]];portConstraint=eastwest;" parent="y6DVJzXxXOsfHL_izgRg-35" vertex="1">
          <mxGeometry y="26" width="190" height="26" as="geometry" />
        </mxCell>
        <mxCell id="y6DVJzXxXOsfHL_izgRg-37" value="" style="line;html=1;strokeWidth=1;align=left;verticalAlign=middle;spacingTop=-1;spacingLeft=3;spacingRight=3;rotatable=0;labelPosition=right;points=[];portConstraint=eastwest;" parent="y6DVJzXxXOsfHL_izgRg-35" vertex="1">
          <mxGeometry y="52" width="190" height="8" as="geometry" />
        </mxCell>
        <mxCell id="y6DVJzXxXOsfHL_izgRg-38" value="+__init__()" style="text;align=left;verticalAlign=top;spacingLeft=4;spacingRight=4;overflow=hidden;rotatable=0;points=[[0,0.5],[1,0.5]];portConstraint=eastwest;" parent="y6DVJzXxXOsfHL_izgRg-35" vertex="1">
          <mxGeometry y="60" width="190" height="26" as="geometry" />
        </mxCell>
        <mxCell id="y6DVJzXxXOsfHL_izgRg-39" value="+criar_produto()" style="text;align=left;verticalAlign=top;spacingLeft=4;spacingRight=4;overflow=hidden;rotatable=0;points=[[0,0.5],[1,0.5]];portConstraint=eastwest;" parent="y6DVJzXxXOsfHL_izgRg-35" vertex="1">
          <mxGeometry y="86" width="190" height="26" as="geometry" />
        </mxCell>
        <mxCell id="y6DVJzXxXOsfHL_izgRg-40" value="+ler_produto()" style="text;align=left;verticalAlign=top;spacingLeft=4;spacingRight=4;overflow=hidden;rotatable=0;points=[[0,0.5],[1,0.5]];portConstraint=eastwest;" parent="y6DVJzXxXOsfHL_izgRg-35" vertex="1">
          <mxGeometry y="112" width="190" height="26" as="geometry" />
        </mxCell>
        <mxCell id="y6DVJzXxXOsfHL_izgRg-41" value="+atualizar_produto()" style="text;align=left;verticalAlign=top;spacingLeft=4;spacingRight=4;overflow=hidden;rotatable=0;points=[[0,0.5],[1,0.5]];portConstraint=eastwest;" parent="y6DVJzXxXOsfHL_izgRg-35" vertex="1">
          <mxGeometry y="138" width="190" height="26" as="geometry" />
        </mxCell>
        <mxCell id="y6DVJzXxXOsfHL_izgRg-42" value="+apagar_produto()" style="text;align=left;verticalAlign=top;spacingLeft=4;spacingRight=4;overflow=hidden;rotatable=0;points=[[0,0.5],[1,0.5]];portConstraint=eastwest;" parent="y6DVJzXxXOsfHL_izgRg-35" vertex="1">
          <mxGeometry y="164" width="190" height="26" as="geometry" />
        </mxCell>
        <mxCell id="y6DVJzXxXOsfHL_izgRg-43" value="+mensagem()" style="text;align=left;verticalAlign=top;spacingLeft=4;spacingRight=4;overflow=hidden;rotatable=0;points=[[0,0.5],[1,0.5]];portConstraint=eastwest;" parent="y6DVJzXxXOsfHL_izgRg-35" vertex="1">
          <mxGeometry y="190" width="190" height="26" as="geometry" />
        </mxCell>
        <mxCell id="y6DVJzXxXOsfHL_izgRg-44" value="+run()" style="text;align=left;verticalAlign=top;spacingLeft=4;spacingRight=4;overflow=hidden;rotatable=0;points=[[0,0.5],[1,0.5]];portConstraint=eastwest;" parent="y6DVJzXxXOsfHL_izgRg-35" vertex="1">
          <mxGeometry y="216" width="190" height="26" as="geometry" />
        </mxCell>
        <mxCell id="y6DVJzXxXOsfHL_izgRg-45" value="DatabaseMongoDB" style="swimlane;fontStyle=0;align=center;verticalAlign=top;childLayout=stackLayout;horizontal=1;startSize=26;horizontalStack=0;resizeParent=1;resizeLast=0;collapsible=1;marginBottom=0;rounded=0;shadow=0;strokeWidth=1;" parent="1" vertex="1">
          <mxGeometry x="625" y="-852" width="200" height="190" as="geometry">
            <mxRectangle x="130" y="380" width="160" height="26" as="alternateBounds" />
          </mxGeometry>
        </mxCell>
        <mxCell id="y6DVJzXxXOsfHL_izgRg-46" value="-clusterConnection: MongoClient" style="text;align=left;verticalAlign=top;spacingLeft=4;spacingRight=4;overflow=hidden;rotatable=0;points=[[0,0.5],[1,0.5]];portConstraint=eastwest;" parent="y6DVJzXxXOsfHL_izgRg-45" vertex="1">
          <mxGeometry y="26" width="200" height="26" as="geometry" />
        </mxCell>
        <mxCell id="y6DVJzXxXOsfHL_izgRg-47" value="-db: Database" style="text;align=left;verticalAlign=top;spacingLeft=4;spacingRight=4;overflow=hidden;rotatable=0;points=[[0,0.5],[1,0.5]];portConstraint=eastwest;" parent="y6DVJzXxXOsfHL_izgRg-45" vertex="1">
          <mxGeometry y="52" width="200" height="26" as="geometry" />
        </mxCell>
        <mxCell id="y6DVJzXxXOsfHL_izgRg-48" value="-collection: Collection" style="text;align=left;verticalAlign=top;spacingLeft=4;spacingRight=4;overflow=hidden;rotatable=0;points=[[0,0.5],[1,0.5]];portConstraint=eastwest;" parent="y6DVJzXxXOsfHL_izgRg-45" vertex="1">
          <mxGeometry y="78" width="200" height="26" as="geometry" />
        </mxCell>
        <mxCell id="y6DVJzXxXOsfHL_izgRg-49" value="" style="line;html=1;strokeWidth=1;align=left;verticalAlign=middle;spacingTop=-1;spacingLeft=3;spacingRight=3;rotatable=0;labelPosition=right;points=[];portConstraint=eastwest;" parent="y6DVJzXxXOsfHL_izgRg-45" vertex="1">
          <mxGeometry y="104" width="200" height="8" as="geometry" />
        </mxCell>
        <mxCell id="y6DVJzXxXOsfHL_izgRg-50" value="+__init__()" style="text;align=left;verticalAlign=top;spacingLeft=4;spacingRight=4;overflow=hidden;rotatable=0;points=[[0,0.5],[1,0.5]];portConstraint=eastwest;" parent="y6DVJzXxXOsfHL_izgRg-45" vertex="1">
          <mxGeometry y="112" width="200" height="26" as="geometry" />
        </mxCell>
        <mxCell id="y6DVJzXxXOsfHL_izgRg-51" value="+connect()" style="text;align=left;verticalAlign=top;spacingLeft=4;spacingRight=4;overflow=hidden;rotatable=0;points=[[0,0.5],[1,0.5]];portConstraint=eastwest;" parent="y6DVJzXxXOsfHL_izgRg-45" vertex="1">
          <mxGeometry y="138" width="200" height="26" as="geometry" />
        </mxCell>
        <mxCell id="y6DVJzXxXOsfHL_izgRg-52" value="+resetDatabase()" style="text;align=left;verticalAlign=top;spacingLeft=4;spacingRight=4;overflow=hidden;rotatable=0;points=[[0,0.5],[1,0.5]];portConstraint=eastwest;" parent="y6DVJzXxXOsfHL_izgRg-45" vertex="1">
          <mxGeometry y="164" width="200" height="26" as="geometry" />
        </mxCell>
        <mxCell id="y6DVJzXxXOsfHL_izgRg-53" value="DatabaseNeo4j" style="swimlane;fontStyle=0;align=center;verticalAlign=top;childLayout=stackLayout;horizontal=1;startSize=26;horizontalStack=0;resizeParent=1;resizeLast=0;collapsible=1;marginBottom=0;rounded=0;shadow=0;strokeWidth=1;" parent="1" vertex="1">
          <mxGeometry x="30" y="-310" width="200" height="242" as="geometry">
            <mxRectangle x="130" y="380" width="160" height="26" as="alternateBounds" />
          </mxGeometry>
        </mxCell>
        <mxCell id="y6DVJzXxXOsfHL_izgRg-54" value="-driver: Driver" style="text;align=left;verticalAlign=top;spacingLeft=4;spacingRight=4;overflow=hidden;rotatable=0;points=[[0,0.5],[1,0.5]];portConstraint=eastwest;" parent="y6DVJzXxXOsfHL_izgRg-53" vertex="1">
          <mxGeometry y="26" width="200" height="26" as="geometry" />
        </mxCell>
        <mxCell id="y6DVJzXxXOsfHL_izgRg-55" value="-dataset: Dataset" style="text;align=left;verticalAlign=top;spacingLeft=4;spacingRight=4;overflow=hidden;rotatable=0;points=[[0,0.5],[1,0.5]];portConstraint=eastwest;" parent="y6DVJzXxXOsfHL_izgRg-53" vertex="1">
          <mxGeometry y="52" width="200" height="26" as="geometry" />
        </mxCell>
        <mxCell id="y6DVJzXxXOsfHL_izgRg-56" value="-collection: Collection" style="text;align=left;verticalAlign=top;spacingLeft=4;spacingRight=4;overflow=hidden;rotatable=0;points=[[0,0.5],[1,0.5]];portConstraint=eastwest;" parent="y6DVJzXxXOsfHL_izgRg-53" vertex="1">
          <mxGeometry y="78" width="200" height="26" as="geometry" />
        </mxCell>
        <mxCell id="y6DVJzXxXOsfHL_izgRg-57" value="" style="line;html=1;strokeWidth=1;align=left;verticalAlign=middle;spacingTop=-1;spacingLeft=3;spacingRight=3;rotatable=0;labelPosition=right;points=[];portConstraint=eastwest;" parent="y6DVJzXxXOsfHL_izgRg-53" vertex="1">
          <mxGeometry y="104" width="200" height="8" as="geometry" />
        </mxCell>
        <mxCell id="y6DVJzXxXOsfHL_izgRg-58" value="+__init__()" style="text;align=left;verticalAlign=top;spacingLeft=4;spacingRight=4;overflow=hidden;rotatable=0;points=[[0,0.5],[1,0.5]];portConstraint=eastwest;" parent="y6DVJzXxXOsfHL_izgRg-53" vertex="1">
          <mxGeometry y="112" width="200" height="26" as="geometry" />
        </mxCell>
        <mxCell id="y6DVJzXxXOsfHL_izgRg-59" value="+close()" style="text;align=left;verticalAlign=top;spacingLeft=4;spacingRight=4;overflow=hidden;rotatable=0;points=[[0,0.5],[1,0.5]];portConstraint=eastwest;" parent="y6DVJzXxXOsfHL_izgRg-53" vertex="1">
          <mxGeometry y="138" width="200" height="26" as="geometry" />
        </mxCell>
        <mxCell id="y6DVJzXxXOsfHL_izgRg-60" value="+execute_query()" style="text;align=left;verticalAlign=top;spacingLeft=4;spacingRight=4;overflow=hidden;rotatable=0;points=[[0,0.5],[1,0.5]];portConstraint=eastwest;" parent="y6DVJzXxXOsfHL_izgRg-53" vertex="1">
          <mxGeometry y="164" width="200" height="26" as="geometry" />
        </mxCell>
        <mxCell id="y6DVJzXxXOsfHL_izgRg-61" value="+drop_all()" style="text;align=left;verticalAlign=top;spacingLeft=4;spacingRight=4;overflow=hidden;rotatable=0;points=[[0,0.5],[1,0.5]];portConstraint=eastwest;" parent="y6DVJzXxXOsfHL_izgRg-53" vertex="1">
          <mxGeometry y="190" width="200" height="26" as="geometry" />
        </mxCell>
        <mxCell id="y6DVJzXxXOsfHL_izgRg-62" value="+insert_dataset()" style="text;align=left;verticalAlign=top;spacingLeft=4;spacingRight=4;overflow=hidden;rotatable=0;points=[[0,0.5],[1,0.5]];portConstraint=eastwest;" parent="y6DVJzXxXOsfHL_izgRg-53" vertex="1">
          <mxGeometry y="216" width="200" height="26" as="geometry" />
        </mxCell>
        <mxCell id="y6DVJzXxXOsfHL_izgRg-63" value="Dataset" style="swimlane;fontStyle=0;align=center;verticalAlign=top;childLayout=stackLayout;horizontal=1;startSize=26;horizontalStack=0;resizeParent=1;resizeLast=0;collapsible=1;marginBottom=0;rounded=0;shadow=0;strokeWidth=1;" parent="1" vertex="1">
          <mxGeometry x="280" y="-200" width="190" height="138" as="geometry">
            <mxRectangle x="130" y="380" width="160" height="26" as="alternateBounds" />
          </mxGeometry>
        </mxCell>
        <mxCell id="y6DVJzXxXOsfHL_izgRg-64" value="-funcionarios: FuncionariosCRUD" style="text;align=left;verticalAlign=top;spacingLeft=4;spacingRight=4;overflow=hidden;rotatable=0;points=[[0,0.5],[1,0.5]];portConstraint=eastwest;" parent="y6DVJzXxXOsfHL_izgRg-63" vertex="1">
          <mxGeometry y="26" width="190" height="26" as="geometry" />
        </mxCell>
        <mxCell id="y6DVJzXxXOsfHL_izgRg-65" value="-database: DatabaseNeo4j" style="text;align=left;verticalAlign=top;spacingLeft=4;spacingRight=4;overflow=hidden;rotatable=0;points=[[0,0.5],[1,0.5]];portConstraint=eastwest;rounded=0;shadow=0;html=0;" parent="y6DVJzXxXOsfHL_izgRg-63" vertex="1">
          <mxGeometry y="52" width="190" height="26" as="geometry" />
        </mxCell>
        <mxCell id="y6DVJzXxXOsfHL_izgRg-66" value="" style="line;html=1;strokeWidth=1;align=left;verticalAlign=middle;spacingTop=-1;spacingLeft=3;spacingRight=3;rotatable=0;labelPosition=right;points=[];portConstraint=eastwest;" parent="y6DVJzXxXOsfHL_izgRg-63" vertex="1">
          <mxGeometry y="78" width="190" height="8" as="geometry" />
        </mxCell>
        <mxCell id="y6DVJzXxXOsfHL_izgRg-67" value="+__init__()" style="text;align=left;verticalAlign=top;spacingLeft=4;spacingRight=4;overflow=hidden;rotatable=0;points=[[0,0.5],[1,0.5]];portConstraint=eastwest;" parent="y6DVJzXxXOsfHL_izgRg-63" vertex="1">
          <mxGeometry y="86" width="190" height="26" as="geometry" />
        </mxCell>
        <mxCell id="y6DVJzXxXOsfHL_izgRg-68" value="+insert_dataset()" style="text;align=left;verticalAlign=top;spacingLeft=4;spacingRight=4;overflow=hidden;rotatable=0;points=[[0,0.5],[1,0.5]];portConstraint=eastwest;" parent="y6DVJzXxXOsfHL_izgRg-63" vertex="1">
          <mxGeometry y="112" width="190" height="26" as="geometry" />
        </mxCell>
        <mxCell id="y6DVJzXxXOsfHL_izgRg-69" value="EstoqueCRUD" style="swimlane;fontStyle=0;align=center;verticalAlign=top;childLayout=stackLayout;horizontal=1;startSize=26;horizontalStack=0;resizeParent=1;resizeLast=0;collapsible=1;marginBottom=0;rounded=0;shadow=0;strokeWidth=1;" parent="1" vertex="1">
          <mxGeometry x="380" y="-830" width="190" height="190" as="geometry">
            <mxRectangle x="130" y="380" width="160" height="26" as="alternateBounds" />
          </mxGeometry>
        </mxCell>
        <mxCell id="y6DVJzXxXOsfHL_izgRg-70" value="-db: DatabaseMongoDB" style="text;align=left;verticalAlign=top;spacingLeft=4;spacingRight=4;overflow=hidden;rotatable=0;points=[[0,0.5],[1,0.5]];portConstraint=eastwest;" parent="y6DVJzXxXOsfHL_izgRg-69" vertex="1">
          <mxGeometry y="26" width="190" height="26" as="geometry" />
        </mxCell>
        <mxCell id="y6DVJzXxXOsfHL_izgRg-71" value="" style="line;html=1;strokeWidth=1;align=left;verticalAlign=middle;spacingTop=-1;spacingLeft=3;spacingRight=3;rotatable=0;labelPosition=right;points=[];portConstraint=eastwest;" parent="y6DVJzXxXOsfHL_izgRg-69" vertex="1">
          <mxGeometry y="52" width="190" height="8" as="geometry" />
        </mxCell>
        <mxCell id="y6DVJzXxXOsfHL_izgRg-72" value="+__init__()" style="text;align=left;verticalAlign=top;spacingLeft=4;spacingRight=4;overflow=hidden;rotatable=0;points=[[0,0.5],[1,0.5]];portConstraint=eastwest;" parent="y6DVJzXxXOsfHL_izgRg-69" vertex="1">
          <mxGeometry y="60" width="190" height="26" as="geometry" />
        </mxCell>
        <mxCell id="y6DVJzXxXOsfHL_izgRg-73" value="+criar_produto()" style="text;align=left;verticalAlign=top;spacingLeft=4;spacingRight=4;overflow=hidden;rotatable=0;points=[[0,0.5],[1,0.5]];portConstraint=eastwest;" parent="y6DVJzXxXOsfHL_izgRg-69" vertex="1">
          <mxGeometry y="86" width="190" height="26" as="geometry" />
        </mxCell>
        <mxCell id="y6DVJzXxXOsfHL_izgRg-74" value="+ler_todos_produtos()" style="text;align=left;verticalAlign=top;spacingLeft=4;spacingRight=4;overflow=hidden;rotatable=0;points=[[0,0.5],[1,0.5]];portConstraint=eastwest;" parent="y6DVJzXxXOsfHL_izgRg-69" vertex="1">
          <mxGeometry y="112" width="190" height="26" as="geometry" />
        </mxCell>
        <mxCell id="y6DVJzXxXOsfHL_izgRg-75" value="+atualizar_produto()" style="text;align=left;verticalAlign=top;spacingLeft=4;spacingRight=4;overflow=hidden;rotatable=0;points=[[0,0.5],[1,0.5]];portConstraint=eastwest;" parent="y6DVJzXxXOsfHL_izgRg-69" vertex="1">
          <mxGeometry y="138" width="190" height="26" as="geometry" />
        </mxCell>
        <mxCell id="y6DVJzXxXOsfHL_izgRg-76" value="+apagar_produto()" style="text;align=left;verticalAlign=top;spacingLeft=4;spacingRight=4;overflow=hidden;rotatable=0;points=[[0,0.5],[1,0.5]];portConstraint=eastwest;" parent="y6DVJzXxXOsfHL_izgRg-69" vertex="1">
          <mxGeometry y="164" width="190" height="26" as="geometry" />
        </mxCell>
        <mxCell id="y6DVJzXxXOsfHL_izgRg-77" value="FuncionariosCRUD" style="swimlane;fontStyle=0;align=center;verticalAlign=top;childLayout=stackLayout;horizontal=1;startSize=26;horizontalStack=0;resizeParent=1;resizeLast=0;collapsible=1;marginBottom=0;rounded=0;shadow=0;strokeWidth=1;" parent="1" vertex="1">
          <mxGeometry x="70" y="-710" width="190" height="350" as="geometry">
            <mxRectangle x="130" y="380" width="160" height="26" as="alternateBounds" />
          </mxGeometry>
        </mxCell>
        <mxCell id="y6DVJzXxXOsfHL_izgRg-78" value="-db: DatabaseNeo4j" style="text;align=left;verticalAlign=top;spacingLeft=4;spacingRight=4;overflow=hidden;rotatable=0;points=[[0,0.5],[1,0.5]];portConstraint=eastwest;" parent="y6DVJzXxXOsfHL_izgRg-77" vertex="1">
          <mxGeometry y="26" width="190" height="26" as="geometry" />
        </mxCell>
        <mxCell id="y6DVJzXxXOsfHL_izgRg-79" value="" style="line;html=1;strokeWidth=1;align=left;verticalAlign=middle;spacingTop=-1;spacingLeft=3;spacingRight=3;rotatable=0;labelPosition=right;points=[];portConstraint=eastwest;" parent="y6DVJzXxXOsfHL_izgRg-77" vertex="1">
          <mxGeometry y="52" width="190" height="8" as="geometry" />
        </mxCell>
        <mxCell id="y6DVJzXxXOsfHL_izgRg-80" value="+__init__()" style="text;align=left;verticalAlign=top;spacingLeft=4;spacingRight=4;overflow=hidden;rotatable=0;points=[[0,0.5],[1,0.5]];portConstraint=eastwest;" parent="y6DVJzXxXOsfHL_izgRg-77" vertex="1">
          <mxGeometry y="60" width="190" height="26" as="geometry" />
        </mxCell>
        <mxCell id="y6DVJzXxXOsfHL_izgRg-81" value="+criar_funcionario()" style="text;align=left;verticalAlign=top;spacingLeft=4;spacingRight=4;overflow=hidden;rotatable=0;points=[[0,0.5],[1,0.5]];portConstraint=eastwest;" parent="y6DVJzXxXOsfHL_izgRg-77" vertex="1">
          <mxGeometry y="86" width="190" height="26" as="geometry" />
        </mxCell>
        <mxCell id="y6DVJzXxXOsfHL_izgRg-82" value="+ler_todos_funcionarios()" style="text;align=left;verticalAlign=top;spacingLeft=4;spacingRight=4;overflow=hidden;rotatable=0;points=[[0,0.5],[1,0.5]];portConstraint=eastwest;" parent="y6DVJzXxXOsfHL_izgRg-77" vertex="1">
          <mxGeometry y="112" width="190" height="26" as="geometry" />
        </mxCell>
        <mxCell id="y6DVJzXxXOsfHL_izgRg-83" value="+atualizar_funcionario()" style="text;align=left;verticalAlign=top;spacingLeft=4;spacingRight=4;overflow=hidden;rotatable=0;points=[[0,0.5],[1,0.5]];portConstraint=eastwest;" parent="y6DVJzXxXOsfHL_izgRg-77" vertex="1">
          <mxGeometry y="138" width="190" height="26" as="geometry" />
        </mxCell>
        <mxCell id="y6DVJzXxXOsfHL_izgRg-84" value="+apagar_funcionario()" style="text;align=left;verticalAlign=top;spacingLeft=4;spacingRight=4;overflow=hidden;rotatable=0;points=[[0,0.5],[1,0.5]];portConstraint=eastwest;" parent="y6DVJzXxXOsfHL_izgRg-77" vertex="1">
          <mxGeometry y="164" width="190" height="26" as="geometry" />
        </mxCell>
        <mxCell id="y6DVJzXxXOsfHL_izgRg-85" value="+criar_setor()" style="text;align=left;verticalAlign=top;spacingLeft=4;spacingRight=4;overflow=hidden;rotatable=0;points=[[0,0.5],[1,0.5]];portConstraint=eastwest;" parent="y6DVJzXxXOsfHL_izgRg-77" vertex="1">
          <mxGeometry y="190" width="190" height="26" as="geometry" />
        </mxCell>
        <mxCell id="y6DVJzXxXOsfHL_izgRg-86" value="+ler_setor()" style="text;align=left;verticalAlign=top;spacingLeft=4;spacingRight=4;overflow=hidden;rotatable=0;points=[[0,0.5],[1,0.5]];portConstraint=eastwest;" parent="y6DVJzXxXOsfHL_izgRg-77" vertex="1">
          <mxGeometry y="216" width="190" height="26" as="geometry" />
        </mxCell>
        <mxCell id="y6DVJzXxXOsfHL_izgRg-87" value="+atualizar_setor()" style="text;align=left;verticalAlign=top;spacingLeft=4;spacingRight=4;overflow=hidden;rotatable=0;points=[[0,0.5],[1,0.5]];portConstraint=eastwest;" parent="y6DVJzXxXOsfHL_izgRg-77" vertex="1">
          <mxGeometry y="242" width="190" height="26" as="geometry" />
        </mxCell>
        <mxCell id="y6DVJzXxXOsfHL_izgRg-88" value="+apagar_setor()" style="text;align=left;verticalAlign=top;spacingLeft=4;spacingRight=4;overflow=hidden;rotatable=0;points=[[0,0.5],[1,0.5]];portConstraint=eastwest;" parent="y6DVJzXxXOsfHL_izgRg-77" vertex="1">
          <mxGeometry y="268" width="190" height="26" as="geometry" />
        </mxCell>
        <mxCell id="y6DVJzXxXOsfHL_izgRg-89" value="+funcionario_setor()" style="text;align=left;verticalAlign=top;spacingLeft=4;spacingRight=4;overflow=hidden;rotatable=0;points=[[0,0.5],[1,0.5]];portConstraint=eastwest;" parent="y6DVJzXxXOsfHL_izgRg-77" vertex="1">
          <mxGeometry y="294" width="190" height="26" as="geometry" />
        </mxCell>
        <mxCell id="y6DVJzXxXOsfHL_izgRg-90" value="+funcionario_gerente()" style="text;align=left;verticalAlign=top;spacingLeft=4;spacingRight=4;overflow=hidden;rotatable=0;points=[[0,0.5],[1,0.5]];portConstraint=eastwest;" parent="y6DVJzXxXOsfHL_izgRg-77" vertex="1">
          <mxGeometry y="320" width="190" height="26" as="geometry" />
        </mxCell>
        <mxCell id="y6DVJzXxXOsfHL_izgRg-96" value="Use" style="endArrow=open;endSize=12;dashed=1;html=1;rounded=0;entryX=0;entryY=0.5;entryDx=0;entryDy=0;exitX=1;exitY=0.5;exitDx=0;exitDy=0;" parent="1" source="y6DVJzXxXOsfHL_izgRg-81" target="y6DVJzXxXOsfHL_izgRg-17" edge="1">
          <mxGeometry width="160" relative="1" as="geometry">
            <mxPoint x="540" y="-300" as="sourcePoint" />
            <mxPoint x="700" y="-300" as="targetPoint" />
          </mxGeometry>
        </mxCell>
        <mxCell id="y6DVJzXxXOsfHL_izgRg-97" value="Use" style="endArrow=open;endSize=12;dashed=1;html=1;rounded=0;entryX=0;entryY=0.5;entryDx=0;entryDy=0;exitX=1;exitY=0.5;exitDx=0;exitDy=0;" parent="1" source="y6DVJzXxXOsfHL_izgRg-88" target="y6DVJzXxXOsfHL_izgRg-10" edge="1">
          <mxGeometry width="160" relative="1" as="geometry">
            <mxPoint x="710" y="-280" as="sourcePoint" />
            <mxPoint x="820" y="-278" as="targetPoint" />
          </mxGeometry>
        </mxCell>
        <mxCell id="y6DVJzXxXOsfHL_izgRg-100" value="FuncionariosCLI" style="swimlane;fontStyle=0;align=center;verticalAlign=top;childLayout=stackLayout;horizontal=1;startSize=26;horizontalStack=0;resizeParent=1;resizeLast=0;collapsible=1;marginBottom=0;rounded=0;shadow=0;strokeWidth=1;" parent="1" vertex="1">
          <mxGeometry x="20" y="-1130" width="190" height="398" as="geometry">
            <mxRectangle x="224" y="-970" width="160" height="26" as="alternateBounds" />
          </mxGeometry>
        </mxCell>
        <mxCell id="y6DVJzXxXOsfHL_izgRg-101" value="-funcionarios: FuncionariosCRUD" style="text;align=left;verticalAlign=top;spacingLeft=4;spacingRight=4;overflow=hidden;rotatable=0;points=[[0,0.5],[1,0.5]];portConstraint=eastwest;" parent="y6DVJzXxXOsfHL_izgRg-100" vertex="1">
          <mxGeometry y="26" width="190" height="26" as="geometry" />
        </mxCell>
        <mxCell id="y6DVJzXxXOsfHL_izgRg-102" value="" style="line;html=1;strokeWidth=1;align=left;verticalAlign=middle;spacingTop=-1;spacingLeft=3;spacingRight=3;rotatable=0;labelPosition=right;points=[];portConstraint=eastwest;" parent="y6DVJzXxXOsfHL_izgRg-100" vertex="1">
          <mxGeometry y="52" width="190" height="8" as="geometry" />
        </mxCell>
        <mxCell id="y6DVJzXxXOsfHL_izgRg-103" value="+__init__()" style="text;align=left;verticalAlign=top;spacingLeft=4;spacingRight=4;overflow=hidden;rotatable=0;points=[[0,0.5],[1,0.5]];portConstraint=eastwest;" parent="y6DVJzXxXOsfHL_izgRg-100" vertex="1">
          <mxGeometry y="60" width="190" height="26" as="geometry" />
        </mxCell>
        <mxCell id="y6DVJzXxXOsfHL_izgRg-104" value="+criar_funcionario()" style="text;align=left;verticalAlign=top;spacingLeft=4;spacingRight=4;overflow=hidden;rotatable=0;points=[[0,0.5],[1,0.5]];portConstraint=eastwest;" parent="y6DVJzXxXOsfHL_izgRg-100" vertex="1">
          <mxGeometry y="86" width="190" height="26" as="geometry" />
        </mxCell>
        <mxCell id="y6DVJzXxXOsfHL_izgRg-105" value="+ler_funcionarios()" style="text;align=left;verticalAlign=top;spacingLeft=4;spacingRight=4;overflow=hidden;rotatable=0;points=[[0,0.5],[1,0.5]];portConstraint=eastwest;" parent="y6DVJzXxXOsfHL_izgRg-100" vertex="1">
          <mxGeometry y="112" width="190" height="26" as="geometry" />
        </mxCell>
        <mxCell id="y6DVJzXxXOsfHL_izgRg-106" value="+atualizar_funcionario()" style="text;align=left;verticalAlign=top;spacingLeft=4;spacingRight=4;overflow=hidden;rotatable=0;points=[[0,0.5],[1,0.5]];portConstraint=eastwest;" parent="y6DVJzXxXOsfHL_izgRg-100" vertex="1">
          <mxGeometry y="138" width="190" height="26" as="geometry" />
        </mxCell>
        <mxCell id="y6DVJzXxXOsfHL_izgRg-107" value="+apagar_funcionario()" style="text;align=left;verticalAlign=top;spacingLeft=4;spacingRight=4;overflow=hidden;rotatable=0;points=[[0,0.5],[1,0.5]];portConstraint=eastwest;" parent="y6DVJzXxXOsfHL_izgRg-100" vertex="1">
          <mxGeometry y="164" width="190" height="26" as="geometry" />
        </mxCell>
        <mxCell id="y6DVJzXxXOsfHL_izgRg-111" value="+criar_setor()" style="text;align=left;verticalAlign=top;spacingLeft=4;spacingRight=4;overflow=hidden;rotatable=0;points=[[0,0.5],[1,0.5]];portConstraint=eastwest;" parent="y6DVJzXxXOsfHL_izgRg-100" vertex="1">
          <mxGeometry y="190" width="190" height="26" as="geometry" />
        </mxCell>
        <mxCell id="y6DVJzXxXOsfHL_izgRg-112" value="+ler_setor()" style="text;align=left;verticalAlign=top;spacingLeft=4;spacingRight=4;overflow=hidden;rotatable=0;points=[[0,0.5],[1,0.5]];portConstraint=eastwest;" parent="y6DVJzXxXOsfHL_izgRg-100" vertex="1">
          <mxGeometry y="216" width="190" height="26" as="geometry" />
        </mxCell>
        <mxCell id="y6DVJzXxXOsfHL_izgRg-113" value="+atualizar_setor()" style="text;align=left;verticalAlign=top;spacingLeft=4;spacingRight=4;overflow=hidden;rotatable=0;points=[[0,0.5],[1,0.5]];portConstraint=eastwest;" parent="y6DVJzXxXOsfHL_izgRg-100" vertex="1">
          <mxGeometry y="242" width="190" height="26" as="geometry" />
        </mxCell>
        <mxCell id="y6DVJzXxXOsfHL_izgRg-114" value="+apagar_setor()" style="text;align=left;verticalAlign=top;spacingLeft=4;spacingRight=4;overflow=hidden;rotatable=0;points=[[0,0.5],[1,0.5]];portConstraint=eastwest;" parent="y6DVJzXxXOsfHL_izgRg-100" vertex="1">
          <mxGeometry y="268" width="190" height="26" as="geometry" />
        </mxCell>
        <mxCell id="y6DVJzXxXOsfHL_izgRg-115" value="+funcionario_setor()" style="text;align=left;verticalAlign=top;spacingLeft=4;spacingRight=4;overflow=hidden;rotatable=0;points=[[0,0.5],[1,0.5]];portConstraint=eastwest;" parent="y6DVJzXxXOsfHL_izgRg-100" vertex="1">
          <mxGeometry y="294" width="190" height="26" as="geometry" />
        </mxCell>
        <mxCell id="y6DVJzXxXOsfHL_izgRg-116" value="+funcionario_gerente()" style="text;align=left;verticalAlign=top;spacingLeft=4;spacingRight=4;overflow=hidden;rotatable=0;points=[[0,0.5],[1,0.5]];portConstraint=eastwest;" parent="y6DVJzXxXOsfHL_izgRg-100" vertex="1">
          <mxGeometry y="320" width="190" height="26" as="geometry" />
        </mxCell>
        <mxCell id="y6DVJzXxXOsfHL_izgRg-108" value="+mensagem()" style="text;align=left;verticalAlign=top;spacingLeft=4;spacingRight=4;overflow=hidden;rotatable=0;points=[[0,0.5],[1,0.5]];portConstraint=eastwest;" parent="y6DVJzXxXOsfHL_izgRg-100" vertex="1">
          <mxGeometry y="346" width="190" height="26" as="geometry" />
        </mxCell>
        <mxCell id="y6DVJzXxXOsfHL_izgRg-109" value="+run()" style="text;align=left;verticalAlign=top;spacingLeft=4;spacingRight=4;overflow=hidden;rotatable=0;points=[[0,0.5],[1,0.5]];portConstraint=eastwest;" parent="y6DVJzXxXOsfHL_izgRg-100" vertex="1">
          <mxGeometry y="372" width="190" height="26" as="geometry" />
        </mxCell>
        <mxCell id="y6DVJzXxXOsfHL_izgRg-120" value="" style="endArrow=open;endFill=1;endSize=12;html=1;rounded=0;entryX=0;entryY=0.5;entryDx=0;entryDy=0;" parent="1" source="y6DVJzXxXOsfHL_izgRg-100" target="y6DVJzXxXOsfHL_izgRg-31" edge="1">
          <mxGeometry width="160" relative="1" as="geometry">
            <mxPoint x="310" y="-1050" as="sourcePoint" />
            <mxPoint x="470" y="-1050" as="targetPoint" />
          </mxGeometry>
        </mxCell>
        <mxCell id="y6DVJzXxXOsfHL_izgRg-121" value="" style="endArrow=open;endFill=1;endSize=12;html=1;rounded=0;entryX=1;entryY=0.5;entryDx=0;entryDy=0;" parent="1" source="y6DVJzXxXOsfHL_izgRg-35" target="y6DVJzXxXOsfHL_izgRg-31" edge="1">
          <mxGeometry width="160" relative="1" as="geometry">
            <mxPoint x="310" y="-1050" as="sourcePoint" />
            <mxPoint x="470" y="-1050" as="targetPoint" />
          </mxGeometry>
        </mxCell>
        <mxCell id="y6DVJzXxXOsfHL_izgRg-131" value="" style="endArrow=open;endFill=1;endSize=12;html=1;rounded=0;exitX=1;exitY=0.5;exitDx=0;exitDy=0;entryX=0;entryY=0.5;entryDx=0;entryDy=0;" parent="1" source="y6DVJzXxXOsfHL_izgRg-72" target="y6DVJzXxXOsfHL_izgRg-47" edge="1">
          <mxGeometry width="160" relative="1" as="geometry">
            <mxPoint x="500" y="-810" as="sourcePoint" />
            <mxPoint x="660" y="-810" as="targetPoint" />
          </mxGeometry>
        </mxCell>
        <mxCell id="y6DVJzXxXOsfHL_izgRg-132" value="" style="endArrow=open;endFill=1;endSize=12;html=1;rounded=0;entryX=0.25;entryY=0;entryDx=0;entryDy=0;" parent="1" source="y6DVJzXxXOsfHL_izgRg-77" target="y6DVJzXxXOsfHL_izgRg-53" edge="1">
          <mxGeometry width="160" relative="1" as="geometry">
            <mxPoint x="120" y="-410" as="sourcePoint" />
            <mxPoint x="280" y="-410" as="targetPoint" />
            <Array as="points">
              <mxPoint x="90" y="-340" />
            </Array>
          </mxGeometry>
        </mxCell>
        <mxCell id="y6DVJzXxXOsfHL_izgRg-135" value="" style="endArrow=open;endFill=1;endSize=12;html=1;rounded=0;" parent="1" source="y6DVJzXxXOsfHL_izgRg-53" target="y6DVJzXxXOsfHL_izgRg-63" edge="1">
          <mxGeometry width="160" relative="1" as="geometry">
            <mxPoint x="400" y="-210" as="sourcePoint" />
            <mxPoint x="560" y="-210" as="targetPoint" />
          </mxGeometry>
        </mxCell>
        <mxCell id="y6DVJzXxXOsfHL_izgRg-138" value="" style="endArrow=open;endFill=1;endSize=12;html=1;rounded=0;exitX=0.25;exitY=0;exitDx=0;exitDy=0;" parent="1" source="y6DVJzXxXOsfHL_izgRg-63" target="y6DVJzXxXOsfHL_izgRg-77" edge="1">
          <mxGeometry width="160" relative="1" as="geometry">
            <mxPoint x="400" y="-210" as="sourcePoint" />
            <mxPoint x="560" y="-210" as="targetPoint" />
            <Array as="points">
              <mxPoint x="290" y="-270" />
            </Array>
          </mxGeometry>
        </mxCell>
        <mxCell id="y6DVJzXxXOsfHL_izgRg-146" value="Extends" style="endArrow=block;endSize=16;endFill=0;html=1;rounded=0;exitX=1;exitY=0.5;exitDx=0;exitDy=0;entryX=0;entryY=0.5;entryDx=0;entryDy=0;" parent="1" source="y6DVJzXxXOsfHL_izgRg-101" target="y6DVJzXxXOsfHL_izgRg-26" edge="1">
          <mxGeometry width="160" relative="1" as="geometry">
            <mxPoint x="380" y="-1010" as="sourcePoint" />
            <mxPoint x="540" y="-1010" as="targetPoint" />
          </mxGeometry>
        </mxCell>
        <mxCell id="y6DVJzXxXOsfHL_izgRg-148" value="Extends" style="endArrow=block;endSize=16;endFill=0;html=1;rounded=0;entryX=1;entryY=0.5;entryDx=0;entryDy=0;exitX=0;exitY=0.5;exitDx=0;exitDy=0;" parent="1" source="y6DVJzXxXOsfHL_izgRg-38" target="y6DVJzXxXOsfHL_izgRg-27" edge="1">
          <mxGeometry x="-0.0027" width="160" relative="1" as="geometry">
            <mxPoint x="380" y="-1010" as="sourcePoint" />
            <mxPoint x="540" y="-1010" as="targetPoint" />
            <mxPoint as="offset" />
          </mxGeometry>
        </mxCell>
        <mxCell id="CuLOmZ2giXJvDx2kBob3-8" value="" style="endArrow=diamondThin;endFill=0;endSize=24;html=1;rounded=0;" parent="1" source="y6DVJzXxXOsfHL_izgRg-14" target="y6DVJzXxXOsfHL_izgRg-9" edge="1">
          <mxGeometry width="160" relative="1" as="geometry">
            <mxPoint x="330" y="-380" as="sourcePoint" />
            <mxPoint x="490" y="-380" as="targetPoint" />
            <Array as="points">
              <mxPoint x="500" y="-410" />
            </Array>
          </mxGeometry>
        </mxCell>
        <mxCell id="CuLOmZ2giXJvDx2kBob3-9" value="Trabalha_em" style="edgeLabel;html=1;align=center;verticalAlign=middle;resizable=0;points=[];" parent="CuLOmZ2giXJvDx2kBob3-8" vertex="1" connectable="0">
          <mxGeometry x="-0.1567" y="2" relative="1" as="geometry">
            <mxPoint as="offset" />
          </mxGeometry>
        </mxCell>
        <mxCell id="CuLOmZ2giXJvDx2kBob3-10" value="" style="endArrow=diamondThin;endFill=1;endSize=24;html=1;rounded=0;entryX=0.75;entryY=0;entryDx=0;entryDy=0;" parent="1" source="y6DVJzXxXOsfHL_izgRg-35" target="y6DVJzXxXOsfHL_izgRg-69" edge="1">
          <mxGeometry width="160" relative="1" as="geometry">
            <mxPoint x="310" y="-900" as="sourcePoint" />
            <mxPoint x="470" y="-900" as="targetPoint" />
          </mxGeometry>
        </mxCell>
        <mxCell id="CuLOmZ2giXJvDx2kBob3-11" value="" style="endArrow=diamondThin;endFill=1;endSize=24;html=1;rounded=0;entryX=1;entryY=0;entryDx=0;entryDy=0;" parent="1" source="y6DVJzXxXOsfHL_izgRg-100" target="y6DVJzXxXOsfHL_izgRg-77" edge="1">
          <mxGeometry width="160" relative="1" as="geometry">
            <mxPoint x="310" y="-590" as="sourcePoint" />
            <mxPoint x="260" y="-710" as="targetPoint" />
          </mxGeometry>
        </mxCell>
        <mxCell id="4cgox0vsJ2yzAYYLVtLu-7" value="Extends" style="endArrow=block;endSize=16;endFill=0;html=1;rounded=0;exitX=0.5;exitY=0;exitDx=0;exitDy=0;" parent="1" source="y6DVJzXxXOsfHL_izgRg-29" target="y6DVJzXxXOsfHL_izgRg-23" edge="1">
          <mxGeometry x="-0.0027" width="160" relative="1" as="geometry">
            <mxPoint x="710" y="-1070" as="sourcePoint" />
            <mxPoint x="520" y="-1064" as="targetPoint" />
            <mxPoint as="offset" />
          </mxGeometry>
        </mxCell>
        <mxCell id="4cgox0vsJ2yzAYYLVtLu-8" value="Use" style="endArrow=open;endSize=12;dashed=1;html=1;rounded=0;entryX=0.25;entryY=0;entryDx=0;entryDy=0;" parent="1" source="y6DVJzXxXOsfHL_izgRg-69" target="y6DVJzXxXOsfHL_izgRg-1" edge="1">
          <mxGeometry width="160" relative="1" as="geometry">
            <mxPoint x="390" y="-530" as="sourcePoint" />
            <mxPoint x="450" y="-458" as="targetPoint" />
          </mxGeometry>
        </mxCell>
      </root>
    </mxGraphModel>
  </diagram>
</mxfile>
